<?xml version="1.0" encoding="utf-8"?>
<!-- Generator: Adobe Illustrator 21.0.2, SVG Export Plug-In . SVG Version: 6.00 Build 0)  -->
<svg version="1.1" id="Layer_1" xmlns="http://www.w3.org/2000/svg" xmlns:xlink="http://www.w3.org/1999/xlink" x="0px" y="0px"
	 viewBox="0 0 866 173.2" style="enable-background:new 0 0 866 173.2;" xml:space="preserve">
<style type="text/css">
	.st0{fill:#233C44;}
	.st1{fill:#1CAF96;}
	.st2{fill:#F9CC3D;}
	.st3{fill:#12A1E0;}
</style>
<g>
	<g>
		<g>
			<path class="st0" d="M286.9,28.1c3.8,2.1,6.7,4.9,8.9,8.5c2.2,3.6,3.3,7.6,3.3,12.1c0,4.4-1.1,8.5-3.3,12.1
				c-2.2,3.6-5.1,6.5-8.9,8.6c-3.8,2.1-7.9,3.1-12.5,3.1s-8.8-1-12.5-3.1c-3.8-2.1-6.7-4.9-8.9-8.5c-2.2-3.6-3.3-7.7-3.3-12.1
				c0-4.4,1.1-8.4,3.3-12.1c2.2-3.6,5.1-6.4,8.9-8.5c3.7-2.1,7.9-3.1,12.6-3.1C278.9,25,283.1,26,286.9,28.1z M267.4,36
				c-2.2,1.3-3.9,3.1-5.2,5.3c-1.3,2.2-1.9,4.7-1.9,7.4c0,2.7,0.6,5.2,1.9,7.4c1.3,2.2,3,4,5.2,5.3c2.2,1.3,4.5,2,7.1,2
				c2.5,0,4.9-0.6,7-1.9c2.1-1.3,3.8-3.1,5.1-5.3c1.2-2.3,1.9-4.7,1.9-7.5c0-2.7-0.6-5.1-1.9-7.4c-1.2-2.2-2.9-4-5.1-5.3
				c-2.1-1.3-4.5-1.9-7-1.9C271.9,34.1,269.6,34.7,267.4,36z"/>
			<path class="st0" d="M336,38.3c2.5,1.5,4.5,3.6,5.8,6.4c1.4,2.8,2.1,5.9,2.1,9.5c0,3.5-0.7,6.7-2,9.4c-1.4,2.7-3.3,4.8-5.7,6.3
				c-2.5,1.5-5.4,2.2-8.6,2.2c-2.5,0-4.6-0.5-6.5-1.4c-1.9-0.9-3.5-2.3-4.8-4.1v5.1H306V23h10.1v18.6c1.3-1.8,2.9-3.2,4.8-4.1
				c1.9-0.9,4-1.4,6.4-1.4C330.6,36,333.5,36.8,336,38.3z M331.2,61c1.6-1.8,2.4-4.2,2.4-7.1c0-2.8-0.8-5.2-2.4-7
				c-1.6-1.8-3.7-2.7-6.3-2.7c-2.6,0-4.7,0.9-6.3,2.7c-1.6,1.8-2.5,4.1-2.5,7c0,2.9,0.8,5.3,2.5,7.1c1.6,1.8,3.8,2.7,6.3,2.7
				C327.5,63.7,329.6,62.8,331.2,61z"/>
			<path class="st0" d="M367.1,44.2c-1.9-0.6-3.6-0.9-5.1-0.9c-1.2,0-2.2,0.2-3,0.7c-0.7,0.4-1.1,1.1-1.1,2c0,1,0.5,1.7,1.5,2.2
				s2.6,1.1,4.9,1.8c2.5,0.7,4.6,1.5,6.2,2.2c1.6,0.7,3,1.8,4.2,3.2c1.2,1.4,1.8,3.3,1.8,5.6c0,3.5-1.3,6.2-4,8.2
				c-2.7,1.9-6.1,2.9-10.3,2.9c-2.9,0-5.7-0.4-8.3-1.3c-2.7-0.9-5-2.1-7-3.6l3.3-6.8c1.8,1.4,3.8,2.5,6,3.3c2.2,0.8,4.3,1.1,6.3,1.1
				c1.4,0,2.4-0.2,3.3-0.7c0.8-0.5,1.2-1.1,1.2-2.1c0-1-0.5-1.8-1.5-2.4c-1-0.6-2.7-1.2-5-1.8c-2.4-0.7-4.4-1.4-6-2.1
				c-1.6-0.7-3-1.8-4.1-3.2c-1.1-1.4-1.7-3.3-1.7-5.6c0-3.5,1.3-6.2,3.9-8.1c2.6-1.9,6-2.9,10-2.9c2.4,0,4.8,0.3,7.2,1
				c2.4,0.7,4.6,1.7,6.6,2.9l-3.5,6.9C370.9,45.6,369,44.8,367.1,44.2z"/>
			<path class="st0" d="M411.5,41c3,3.3,4.4,7.9,4.4,13.7c0,1.1,0,1.9-0.1,2.4h-25.4c0.6,2.2,1.7,4,3.3,5.2c1.6,1.2,3.6,1.9,5.8,1.9
				c1.7,0,3.3-0.3,4.8-1c1.5-0.6,2.9-1.6,4.1-2.8l5.3,5.4c-1.8,2-4,3.6-6.5,4.6c-2.6,1.1-5.4,1.6-8.6,1.6c-3.7,0-7-0.7-9.8-2.2
				c-2.8-1.5-4.9-3.6-6.4-6.3c-1.5-2.7-2.3-5.8-2.3-9.4c0-3.6,0.8-6.8,2.3-9.5c1.5-2.7,3.7-4.9,6.4-6.4c2.8-1.5,5.9-2.3,9.5-2.3
				C404.2,36,408.6,37.7,411.5,41z M406.4,51.1c-0.1-2.3-0.8-4.2-2.2-5.6c-1.4-1.4-3.3-2.1-5.6-2.1c-2.2,0-4,0.7-5.5,2.1
				c-1.5,1.4-2.4,3.3-2.8,5.6H406.4z"/>
			<path class="st0" d="M437.5,37.7c2-1.1,4.3-1.7,6.9-1.8v9.5c-0.4,0-0.9-0.1-1.6-0.1c-3.1,0-5.6,0.8-7.4,2.5
				c-1.8,1.7-2.7,3.9-2.7,6.7v17h-10.1V36.4h10.1v6.4C433.9,40.5,435.5,38.9,437.5,37.7z"/>
			<path class="st0" d="M446.4,36.4l10.4-0.1l8.3,25.7l8.3-25.7h10l-13.3,35.3h-10.4L446.4,36.4z"/>
			<path class="st0" d="M507.5,71.7v-4.1c-1.2,1.5-2.7,2.6-4.6,3.4c-1.9,0.8-4.1,1.2-6.5,1.2c-3.7,0-6.7-1-8.9-3.1
				c-2.2-2-3.3-4.7-3.3-8c0-3.3,1.2-5.9,3.5-7.8c2.3-1.9,5.7-2.8,10-2.9h9.7v-0.7c0-1.9-0.6-3.3-1.9-4.4c-1.2-1-3.1-1.5-5.5-1.5
				c-3.3,0-6.8,1-10.5,3.1l-3.2-7c2.8-1.4,5.4-2.4,7.9-3.1c2.5-0.7,5.1-1,8.1-1c4.7,0,8.4,1.1,11,3.3c2.6,2.2,3.9,5.3,4,9.3
				l0.1,23.1H507.5z M504.7,63.4c1.5-1,2.5-2.3,2.8-3.8v-3.2h-7.9c-2,0-3.4,0.3-4.4,1c-0.9,0.6-1.4,1.7-1.4,3.1
				c0,1.4,0.5,2.4,1.5,3.3c1,0.8,2.3,1.2,4,1.2C501.3,64.9,503.2,64.4,504.7,63.4z"/>
			<path class="st0" d="M548,69.7c-1.3,0.8-2.8,1.4-4.4,1.8c-1.6,0.4-3.2,0.6-4.8,0.6c-3.3,0-6-0.9-8-2.8c-2.1-1.9-3.1-4.6-3.1-8.1
				V44.9h-4.9v-7h4.9v-9.7h10v9.7h9.6v7h-9.6v14.6c0,2.7,1.1,4.1,3.2,4.1c1.5,0,3.1-0.4,4.9-1.3L548,69.7z"/>
			<path class="st0" d="M579.7,38.3c2.9,1.5,5.1,3.6,6.7,6.3c1.6,2.7,2.4,5.9,2.4,9.5c0,3.5-0.8,6.7-2.4,9.4
				c-1.6,2.7-3.8,4.9-6.7,6.4c-2.9,1.5-6.2,2.3-9.9,2.3c-3.8,0-7.1-0.8-10-2.3c-2.9-1.5-5.1-3.6-6.7-6.4c-1.6-2.7-2.4-5.9-2.4-9.4
				c0-3.6,0.8-6.7,2.4-9.5c1.6-2.7,3.8-4.8,6.7-6.3c2.9-1.5,6.2-2.2,10-2.2C573.6,36,576.9,36.8,579.7,38.3z M563.4,47.1
				c-1.6,1.8-2.5,4.1-2.5,7c0,2.9,0.8,5.2,2.5,7c1.6,1.8,3.8,2.7,6.4,2.7c2.6,0,4.7-0.9,6.3-2.7c1.6-1.8,2.5-4.1,2.5-7
				c0-2.9-0.8-5.2-2.5-7c-1.6-1.8-3.8-2.7-6.3-2.7C567.2,44.4,565.1,45.3,563.4,47.1z M572.1,21.5l8.9,3.5l-8.9,7.2l-7.4-0.7
				L572.1,21.5z"/>
			<path class="st0" d="M610.4,37.7c2-1.1,4.3-1.7,6.9-1.8v9.5c-0.4,0-0.9-0.1-1.6-0.1c-3.1,0-5.6,0.8-7.4,2.5
				c-1.8,1.7-2.7,3.9-2.7,6.7v17h-10.1V36.4h10.1v6.4C606.8,40.5,608.4,38.9,610.4,37.7z"/>
			<path class="st0" d="M631.7,22.2c1,1.1,1.5,2.4,1.5,4.1c0,1.7-0.5,3-1.5,4.1c-1,1.1-2.4,1.6-4,1.6c-1.6,0-2.9-0.5-3.9-1.6
				c-1-1.1-1.5-2.4-1.5-4c0-1.7,0.5-3,1.5-4.1c1-1.1,2.3-1.6,3.9-1.6C629.4,20.7,630.7,21.2,631.7,22.2z M622.8,36.4h10.1v35.3
				h-10.1V36.4z"/>
			<path class="st0" d="M668.5,38.3c2.9,1.5,5.1,3.6,6.7,6.3c1.6,2.7,2.4,5.9,2.4,9.5c0,3.5-0.8,6.7-2.4,9.4
				c-1.6,2.7-3.8,4.9-6.7,6.4c-2.9,1.5-6.2,2.3-9.9,2.3c-3.8,0-7.1-0.8-10-2.3c-2.9-1.5-5.1-3.6-6.7-6.4c-1.6-2.7-2.4-5.9-2.4-9.4
				c0-3.6,0.8-6.7,2.4-9.5c1.6-2.7,3.8-4.8,6.7-6.3c2.9-1.5,6.2-2.2,10-2.2C662.3,36,665.6,36.8,668.5,38.3z M652.2,47.1
				c-1.6,1.8-2.5,4.1-2.5,7c0,2.9,0.8,5.2,2.5,7c1.6,1.8,3.8,2.7,6.4,2.7c2.6,0,4.7-0.9,6.3-2.7c1.6-1.8,2.5-4.1,2.5-7
				c0-2.9-0.8-5.2-2.5-7c-1.6-1.8-3.8-2.7-6.3-2.7C656,44.4,653.8,45.3,652.2,47.1z"/>
			<path class="st0" d="M286.1,107.6c2.9,2.1,4.4,4.9,4.4,8.4c0,2.5-0.7,4.6-2.1,6.4c-1.4,1.8-3.4,3.1-5.8,3.7c3,0.6,5.3,1.9,7,4
				c1.7,2.1,2.6,4.6,2.6,7.7c0,3.9-1.6,7.1-4.7,9.3c-3.1,2.3-7.3,3.4-12.7,3.4h-21.9v-46h21.1C279.2,104.5,283.2,105.6,286.1,107.6z
				 M278.2,121.7c1.1-0.9,1.7-2.2,1.7-3.8c0-1.6-0.6-2.8-1.7-3.7c-1.1-0.9-2.7-1.3-4.6-1.2h-10.2v10h10.2
				C275.5,123.1,277.1,122.6,278.2,121.7z M279.3,140.6c1.4-1,2.1-2.4,2.1-4.1c0-1.7-0.7-3-2.1-3.9c-1.4-1-3.3-1.4-5.8-1.4h-10.2
				v10.9h10.2C276,142.1,277.9,141.6,279.3,140.6z"/>
			<path class="st0" d="M314.4,116.6c2-1.1,4.3-1.7,6.9-1.8v9.5c-0.4,0-0.9-0.1-1.6-0.1c-3.1,0-5.6,0.8-7.4,2.5
				c-1.8,1.7-2.7,3.9-2.7,6.7v17h-10.1v-35.3h10.1v6.4C310.8,119.4,312.4,117.7,314.4,116.6z"/>
			<path class="st0" d="M346.2,150.5v-4.1c-1.2,1.5-2.7,2.6-4.6,3.4c-1.9,0.8-4.1,1.2-6.5,1.2c-3.7,0-6.7-1-8.9-3.1
				c-2.2-2-3.3-4.7-3.3-8c0-3.3,1.2-5.9,3.5-7.8c2.3-1.9,5.7-2.8,10-2.9h9.7v-0.7c0-1.9-0.6-3.3-1.9-4.4c-1.2-1-3.1-1.5-5.5-1.5
				c-3.3,0-6.8,1-10.5,3.1l-3.2-7c2.8-1.4,5.4-2.4,7.9-3.1c2.5-0.7,5.1-1,8.1-1c4.7,0,8.4,1.1,11,3.3c2.6,2.2,3.9,5.3,4,9.3
				l0.1,23.1H346.2z M343.4,142.2c1.5-1,2.5-2.3,2.8-3.8v-3.2h-7.9c-2,0-3.4,0.3-4.4,1c-0.9,0.6-1.4,1.7-1.4,3.1
				c0,1.4,0.5,2.4,1.5,3.3c1,0.8,2.3,1.2,4,1.2C340,143.8,341.8,143.3,343.4,142.2z"/>
			<path class="st0" d="M381.4,123c-1.9-0.6-3.6-0.9-5.1-0.9c-1.2,0-2.2,0.2-3,0.7c-0.7,0.4-1.1,1.1-1.1,2c0,1,0.5,1.7,1.5,2.2
				c1,0.5,2.6,1.1,4.9,1.8c2.5,0.7,4.6,1.5,6.2,2.2c1.6,0.7,3,1.8,4.2,3.2c1.2,1.4,1.8,3.3,1.8,5.6c0,3.5-1.3,6.2-4,8.2
				c-2.7,1.9-6.1,2.9-10.3,2.9c-2.9,0-5.7-0.4-8.3-1.3c-2.7-0.9-5-2.1-7-3.6l3.3-6.8c1.8,1.4,3.8,2.5,6,3.3c2.2,0.8,4.3,1.1,6.3,1.1
				c1.4,0,2.4-0.2,3.3-0.7c0.8-0.5,1.2-1.1,1.2-2.1c0-1-0.5-1.8-1.5-2.4c-1-0.6-2.7-1.2-5-1.8c-2.4-0.7-4.4-1.4-6-2.1
				c-1.6-0.7-3-1.8-4.1-3.2c-1.1-1.4-1.7-3.3-1.7-5.6c0-3.5,1.3-6.2,3.9-8.1c2.6-1.9,6-2.9,10-2.9c2.4,0,4.8,0.3,7.2,1
				c2.4,0.7,4.6,1.7,6.6,2.9l-3.5,6.9C385.2,124.5,383.3,123.6,381.4,123z"/>
			<path class="st0" d="M406.6,101.1c1,1.1,1.5,2.4,1.5,4.1c0,1.7-0.5,3-1.5,4.1c-1,1.1-2.4,1.6-4,1.6c-1.6,0-2.9-0.5-3.9-1.6
				c-1-1.1-1.5-2.4-1.5-4c0-1.7,0.5-3,1.5-4.1c1-1.1,2.3-1.6,3.9-1.6C404.2,99.5,405.6,100,406.6,101.1z M397.6,115.2h10.1v35.3
				h-10.1V115.2z"/>
			<path class="st0" d="M417.8,101.8h10.1v48.7h-10.1V101.8z"/>
			<path class="st0" d="M466.2,119.8c3,3.3,4.4,7.9,4.4,13.7c0,1.1,0,1.9-0.1,2.4h-25.4c0.6,2.2,1.7,4,3.3,5.2
				c1.6,1.2,3.6,1.9,5.8,1.9c1.7,0,3.3-0.3,4.8-1c1.5-0.6,2.9-1.6,4.1-2.8l5.3,5.4c-1.8,2-4,3.6-6.5,4.6c-2.6,1.1-5.4,1.6-8.6,1.6
				c-3.7,0-7-0.7-9.8-2.2c-2.8-1.5-4.9-3.6-6.4-6.3c-1.5-2.7-2.3-5.8-2.3-9.4c0-3.6,0.8-6.8,2.3-9.5c1.5-2.7,3.7-4.9,6.4-6.4
				c2.8-1.5,5.9-2.3,9.5-2.3C458.9,114.9,463.2,116.5,466.2,119.8z M461.1,130c-0.1-2.3-0.8-4.2-2.2-5.6c-1.4-1.4-3.3-2.1-5.6-2.1
				c-2.2,0-4,0.7-5.5,2.1c-1.5,1.4-2.4,3.3-2.8,5.6H461.1z"/>
			<path class="st0" d="M486.2,101.1c1,1.1,1.5,2.4,1.5,4.1c0,1.7-0.5,3-1.5,4.1s-2.4,1.6-4,1.6c-1.6,0-2.9-0.5-3.9-1.6
				c-1-1.1-1.5-2.4-1.5-4c0-1.7,0.5-3,1.5-4.1c1-1.1,2.3-1.6,3.9-1.6C483.8,99.5,485.2,100,486.2,101.1z M477.2,115.2h10.1v35.3
				h-10.1V115.2z"/>
			<path class="st0" d="M512,116.6c2-1.1,4.3-1.7,6.9-1.8v9.5c-0.4,0-0.9-0.1-1.6-0.1c-3.1,0-5.6,0.8-7.4,2.5
				c-1.8,1.7-2.7,3.9-2.7,6.7v17h-10.1v-35.3h10.1v6.4C508.4,119.4,510,117.7,512,116.6z"/>
			<path class="st0" d="M550.2,117.1c2.9,1.5,5.1,3.6,6.7,6.3c1.6,2.7,2.4,5.9,2.4,9.5c0,3.5-0.8,6.7-2.4,9.4
				c-1.6,2.7-3.8,4.9-6.7,6.4c-2.9,1.5-6.2,2.3-9.9,2.3c-3.8,0-7.1-0.8-10-2.3c-2.9-1.5-5.1-3.6-6.7-6.4c-1.6-2.7-2.4-5.9-2.4-9.4
				c0-3.6,0.8-6.7,2.4-9.5c1.6-2.7,3.8-4.8,6.7-6.3c2.9-1.5,6.2-2.2,10-2.2C544.1,114.9,547.4,115.6,550.2,117.1z M533.9,126
				c-1.6,1.8-2.5,4.1-2.5,7s0.8,5.2,2.5,7c1.6,1.8,3.8,2.7,6.4,2.7c2.6,0,4.7-0.9,6.3-2.7c1.6-1.8,2.5-4.1,2.5-7s-0.8-5.2-2.5-7
				c-1.6-1.8-3.8-2.7-6.3-2.7C537.7,123.3,535.6,124.2,533.9,126z"/>
			<path class="st0" d="M616.2,101.8v48.7h-10v-5.2c-1.3,1.8-2.8,3.2-4.7,4.2c-1.9,0.9-4,1.4-6.4,1.4c-3.3,0-6.3-0.8-8.8-2.3
				c-2.5-1.5-4.5-3.6-5.8-6.4c-1.4-2.8-2.1-5.9-2.1-9.5c0-3.5,0.7-6.7,2-9.4c1.4-2.7,3.3-4.8,5.8-6.3c2.5-1.5,5.4-2.2,8.6-2.2
				c5,0,8.8,1.9,11.4,5.6v-18.6H616.2z M603.7,140c1.6-1.8,2.5-4.2,2.5-7.1s-0.8-5.2-2.5-7.1c-1.6-1.8-3.8-2.7-6.3-2.7
				c-2.6,0-4.8,0.9-6.4,2.7c-1.6,1.8-2.5,4.2-2.5,7.1c0,2.9,0.9,5.2,2.5,7.1c1.6,1.8,3.8,2.7,6.4,2.7
				C599.9,142.8,602.1,141.9,603.7,140z"/>
			<path class="st0" d="M654.5,119.8c3,3.3,4.4,7.9,4.4,13.7c0,1.1,0,1.9-0.1,2.4h-25.4c0.6,2.2,1.7,4,3.3,5.2
				c1.6,1.2,3.6,1.9,5.8,1.9c1.7,0,3.3-0.3,4.8-1c1.5-0.6,2.9-1.6,4.1-2.8l5.3,5.4c-1.8,2-4,3.6-6.5,4.6c-2.6,1.1-5.4,1.6-8.6,1.6
				c-3.7,0-7-0.7-9.8-2.2c-2.8-1.5-4.9-3.6-6.4-6.3c-1.5-2.7-2.3-5.8-2.3-9.4c0-3.6,0.8-6.8,2.3-9.5c1.5-2.7,3.7-4.9,6.4-6.4
				c2.8-1.5,5.9-2.3,9.5-2.3C647.2,114.9,651.5,116.5,654.5,119.8z M649.4,130c-0.1-2.3-0.8-4.2-2.2-5.6c-1.4-1.4-3.3-2.1-5.6-2.1
				c-2.2,0-4,0.7-5.5,2.1c-1.5,1.4-2.4,3.3-2.8,5.6H649.4z"/>
			<path class="st0" d="M715.1,150.5l-3.6-8.9h-21.3l-3.6,8.9h-10.7l20-46h10.7l19.6,46H715.1z M693.6,133.2h14.5l-7.2-17.9
				L693.6,133.2z"/>
			<path class="st0" d="M747.3,123c-1.9-0.6-3.6-0.9-5.1-0.9c-1.2,0-2.2,0.2-3,0.7c-0.7,0.4-1.1,1.1-1.1,2c0,1,0.5,1.7,1.5,2.2
				c1,0.5,2.6,1.1,4.9,1.8c2.5,0.7,4.6,1.5,6.2,2.2c1.6,0.7,3,1.8,4.2,3.2c1.2,1.4,1.8,3.3,1.8,5.6c0,3.5-1.3,6.2-4,8.2
				c-2.7,1.9-6.1,2.9-10.3,2.9c-2.9,0-5.7-0.4-8.3-1.3c-2.7-0.9-5-2.1-7-3.6l3.3-6.8c1.8,1.4,3.8,2.5,6,3.3c2.2,0.8,4.3,1.1,6.3,1.1
				c1.4,0,2.4-0.2,3.3-0.7c0.8-0.5,1.2-1.1,1.2-2.1c0-1-0.5-1.8-1.5-2.4c-1-0.6-2.7-1.2-5-1.8c-2.4-0.7-4.4-1.4-6-2.1
				c-1.6-0.7-3-1.8-4.1-3.2c-1.1-1.4-1.7-3.3-1.7-5.6c0-3.5,1.3-6.2,3.9-8.1c2.6-1.9,6-2.9,10-2.9c2.4,0,4.8,0.3,7.2,1
				c2.4,0.7,4.6,1.7,6.6,2.9l-3.5,6.9C751.1,124.5,749.2,123.6,747.3,123z"/>
			<path class="st0" d="M819.6,118.4c2.3,2.4,3.4,5.7,3.4,9.9v22.2h-10v-19.2c0-2.3-0.6-4-1.8-5.3c-1.2-1.3-2.9-1.9-5-1.9
				c-2.4,0-4.3,0.9-5.7,2.6c-1.4,1.7-2.1,3.8-2.1,6.4v17.5h-10v-19.2c0-2.2-0.6-4-1.8-5.3c-1.2-1.3-2.9-1.9-5-1.9
				c-2.4,0-4.3,0.9-5.7,2.6c-1.4,1.7-2.1,3.8-2.1,6.4v17.5h-10.1v-35.3h10.1v6.1c2.5-4.2,6.4-6.4,12-6.5c3,0,5.5,0.7,7.6,2.1
				c2.1,1.4,3.5,3.4,4.4,6c1.1-2.7,2.8-4.7,5-6c2.2-1.4,4.8-2.1,7.8-2.1C814.2,114.8,817.3,116,819.6,118.4z"/>
			<path class="st0" d="M852.3,150.5v-4.1c-1.2,1.5-2.7,2.6-4.6,3.4c-1.9,0.8-4.1,1.2-6.5,1.2c-3.7,0-6.7-1-8.9-3.1
				c-2.2-2-3.3-4.7-3.3-8c0-3.3,1.2-5.9,3.5-7.8c2.3-1.9,5.7-2.8,10-2.9h9.7v-0.7c0-1.9-0.6-3.3-1.9-4.4c-1.2-1-3.1-1.5-5.5-1.5
				c-3.3,0-6.8,1-10.5,3.1l-3.2-7c2.8-1.4,5.4-2.4,7.9-3.1c2.5-0.7,5.1-1,8.1-1c4.7,0,8.4,1.1,11,3.3c2.6,2.2,3.9,5.3,4,9.3
				l0.1,23.1H852.3z M849.5,142.2c1.5-1,2.5-2.3,2.8-3.8v-3.2h-7.9c-2,0-3.4,0.3-4.4,1c-0.9,0.6-1.4,1.7-1.4,3.1
				c0,1.4,0.5,2.4,1.5,3.3c1,0.8,2.3,1.2,4,1.2C846.1,143.8,847.9,143.3,849.5,142.2z"/>
		</g>
	</g>
	<g>
		<path class="st1" d="M116.4,22.9v128.5c0,5.2,4.2,9.5,9.5,9.5h57.6c5.3,0,9.5-4.3,9.5-9.6c-0.4-29.1-6.6-115.6-63.6-137.2
			C123.1,11.7,116.4,16.2,116.4,22.9z"/>
		<path class="st1" d="M82.9,22.9v128.5c0,5.2-4.2,9.5-9.5,9.5H15.9c-5.3,0-9.5-4.3-9.5-9.6C6.8,122.2,13,35.7,70,14
			C76.2,11.7,82.9,16.2,82.9,22.9z"/>
		<path class="st2" d="M138,83.2l-33.3-19.3V13.4c0-2.8-2.2-5-5-5s-5,2.2-5,5v50.5L61.3,83.2c-2.4,1.4-3.2,4.4-1.8,6.8
			c0.9,1.6,2.6,2.5,4.3,2.5c0.8,0,1.7-0.2,2.5-0.7l33.3-19.3L133,91.8c0.8,0.5,1.6,0.7,2.5,0.7c1.7,0,3.4-0.9,4.3-2.5
			C141.2,87.6,140.4,84.6,138,83.2z"/>
		<circle class="st3" cx="99.7" cy="92" r="9.3"/>
	</g>
</g>
</svg>
